<?xml version="1.0" encoding="UTF-8" standalone="no"?>
<!DOCTYPE svg PUBLIC "-//W3C//DTD SVG 1.1//EN" "http://www.w3.org/Graphics/SVG/1.1/DTD/svg11.dtd">
<svg width="100%" height="100%" viewBox="0 0 10 14" version="1.1" xmlns="http://www.w3.org/2000/svg" xmlns:xlink="http://www.w3.org/1999/xlink" xml:space="preserve" xmlns:serif="http://www.serif.com/" style="fill-rule:evenodd;clip-rule:evenodd;stroke-linejoin:round;stroke-miterlimit:2;">
    <g id="arrow_down" transform="matrix(1.484,0,0,2.55867,-17.412,-17.9107)">
        <rect x="11.733" y="7" width="6.671" height="5.472" style="fill:none;"/>
        <clipPath id="_clip1">
            <rect x="11.733" y="7" width="6.671" height="5.472"/>
        </clipPath>
        <g clip-path="url(#_clip1)">
            <g transform="matrix(0.673854,0,0,0.390828,11.7244,6.99512)">
                <path d="M3.963,10.606L3.963,1.012C3.963,0.464 4.415,0.012 4.963,0.012C5.512,0.012 5.963,0.464 5.963,1.012L5.963,10.602L8.253,8.312C8.435,8.157 8.665,8.072 8.904,8.072C9.452,8.072 9.904,8.523 9.904,9.072C9.904,9.311 9.819,9.541 9.663,9.722L5.701,13.685C5.518,13.884 5.258,14.011 4.97,14.012L4.963,14.012C4.698,14.014 4.442,13.91 4.253,13.722L0.253,9.722C0.098,9.541 0.013,9.311 0.013,9.072C0.013,8.523 0.464,8.072 1.013,8.072C1.251,8.072 1.482,8.157 1.663,8.312L3.963,10.606Z" style="fill-rule:nonzero;"/>
            </g>
        </g>
    </g>
</svg>
